<?xml version="1.0" standalone="no"?>
<!DOCTYPE svg PUBLIC "-//W3C//DTD SVG 20010904//EN"
 "http://www.w3.org/TR/2001/REC-SVG-20010904/DTD/svg10.dtd">
<svg version="1.0" xmlns="http://www.w3.org/2000/svg"
 width="474.000000pt" height="435.000000pt" viewBox="0 0 474.000000 435.000000"
 preserveAspectRatio="xMidYMid meet">

<g transform="translate(0.000000,435.000000) scale(0.100000,-0.100000)"
fill="#000000" stroke="none">
<path d="M1 4334 c0 -11 3 -14 6 -6 3 7 2 16 -1 19 -3 4 -6 -2 -5 -13z"/>
<path d="M45 4330 c-4 -11 -15 -20 -26 -20 -18 0 -19 -8 -18 -162 1 -90 3
-155 6 -145 4 14 12 18 29 14 16 -3 24 0 24 10 0 7 7 16 15 19 8 4 15 19 15
34 0 36 11 43 38 24 17 -12 22 -25 22 -63 0 -40 -5 -52 -28 -73 -15 -13 -33
-23 -39 -21 -6 2 -14 0 -17 -5 -8 -14 5 -73 14 -67 4 3 10 -2 14 -10 3 -9 0
-15 -9 -15 -19 0 -19 -14 0 -30 22 -18 20 -62 -2 -59 -36 3 -43 -2 -63 -41
-25 -49 -25 -82 -2 -103 41 -37 53 -22 69 86 6 40 18 48 26 17 3 -13 14 -20
31 -20 16 0 31 -9 42 -25 14 -22 15 -28 2 -47 -25 -39 -9 -100 33 -125 24 -14
29 -23 24 -42 -6 -25 -42 -60 -62 -61 -6 0 -17 16 -24 35 -7 19 -17 35 -21 35
-10 0 -11 -34 -1 -44 7 -7 9 -24 17 -113 6 -68 14 -93 32 -93 23 0 14 -62 -8
-66 -10 -1 -18 1 -18 4 -1 17 -18 32 -32 27 -10 -4 -13 -15 -10 -30 3 -17 -4
-31 -24 -50 -16 -15 -37 -34 -46 -42 -12 -11 -16 -25 -13 -42 5 -23 5 -24 -4
-5 -5 12 -14 25 -20 29 -8 4 -11 -438 -11 -1519 l0 -1526 2370 0 2370 0 0
2175 0 2175 -2344 0 c-2331 0 -2345 0 -2351 -20z m2800 -645 c98 -26 182 -72
256 -142 130 -123 179 -236 188 -436 l6 -128 53 41 c93 69 148 80 413 80 258
0 272 -3 331 -67 49 -55 61 -113 56 -286 -3 -123 -5 -140 -22 -153 -29 -21
-63 -17 -80 8 -13 18 -16 53 -16 176 l0 154 -30 29 -30 30 -227 -3 c-214 -3
-231 -4 -274 -26 -52 -25 -111 -79 -140 -126 -28 -46 -25 -58 9 -44 29 13 554
25 598 14 22 -6 24 -12 24 -61 l0 -55 -291 0 c-277 0 -293 -1 -325 -21 -23
-14 -37 -32 -43 -57 -14 -53 -17 -792 -4 -817 6 -11 23 -31 38 -45 l27 -25
483 0 483 0 27 25 c54 49 55 59 55 457 0 340 -2 371 -19 410 -23 50 -62 73
-126 73 l-46 0 3 58 3 57 55 -3 c70 -4 150 -42 184 -87 55 -71 56 -85 56 -514
0 -396 0 -396 -24 -446 -13 -27 -39 -64 -57 -82 -68 -64 -58 -63 -596 -63
-557 0 -535 -3 -613 88 l-43 50 -46 -30 c-93 -58 -87 -58 -769 -58 -699 0
-689 -1 -784 71 l-52 39 -14 -28 c-23 -44 -74 -93 -117 -113 -37 -16 -80 -18
-530 -19 -539 -2 -526 -3 -598 60 -19 16 -44 51 -55 77 -19 45 -20 72 -23 458
-4 457 -6 444 66 523 44 49 128 84 189 80 l41 -3 3 -57 3 -58 -41 0 c-63 0
-106 -25 -129 -73 -18 -40 -19 -65 -18 -424 2 -369 3 -382 23 -410 46 -63 43
-63 542 -63 492 0 486 -1 531 56 21 26 21 36 21 430 l0 404 -34 38 -34 37
-302 3 -301 3 3 57 3 57 275 0 c151 0 297 -4 323 -8 l48 -8 -20 38 c-25 48
-83 104 -141 134 -43 23 -56 24 -273 27 l-227 3 -30 -30 -30 -29 0 -154 c0
-123 -3 -158 -16 -176 -17 -25 -51 -29 -80 -8 -18 13 -19 28 -19 189 l0 174
30 48 c21 35 45 56 80 74 47 25 59 26 232 29 101 2 215 -1 255 -7 89 -14 179
-56 234 -111 l41 -40 13 62 c22 113 78 192 172 243 44 24 68 30 141 33 l87 4
0 -76 0 -76 -55 0 c-83 0 -141 -34 -176 -103 -19 -35 -19 -61 -17 -570 l3
-533 25 -37 c13 -20 41 -45 61 -56 36 -21 50 -21 667 -21 423 0 640 4 659 11
40 15 73 48 94 94 17 37 19 76 19 553 0 544 -1 553 -48 605 -46 51 -51 52
-472 57 l-395 5 -3 73 -3 72 404 0 c271 0 415 -4 436 -11 18 -6 35 -9 38 -5
13 13 -34 91 -87 145 -31 31 -78 67 -105 80 -98 46 -134 51 -420 51 -379 0
-365 12 -365 -305 0 -205 0 -206 -25 -230 -42 -43 -105 -29 -124 26 -16 46
-14 370 3 442 23 97 84 169 172 201 59 22 616 22 699 1z m-373 -779 c45 -19
137 -56 203 -82 66 -27 128 -57 137 -66 16 -16 18 -42 18 -266 0 -291 10 -266
-130 -330 -47 -22 -130 -61 -185 -87 -134 -63 -145 -64 -235 -22 -294 136
-345 164 -358 191 -15 33 -17 451 -2 490 5 14 19 30 32 37 42 23 403 168 420
168 9 1 54 -14 100 -33z m-1439 -422 c78 -30 150 -63 159 -71 16 -14 18 -37
18 -198 0 -161 -2 -184 -17 -197 -24 -21 -297 -148 -318 -148 -10 0 -56 18
-104 39 -192 87 -223 104 -233 130 -11 29 -1 350 11 370 10 15 289 129 320
130 12 1 87 -24 164 -55z m2972 0 c77 -31 148 -63 158 -71 15 -14 17 -37 17
-198 0 -161 -2 -184 -17 -197 -24 -21 -297 -148 -318 -148 -21 0 -294 127
-317 148 -16 13 -18 36 -18 197 0 161 2 184 18 198 23 21 281 125 312 126 14
1 89 -24 165 -55z m51 -1039 c28 -18 54 -71 54 -110 0 -24 -3 -25 -54 -25 -52
0 -55 1 -58 28 -4 33 -32 37 -36 4 -3 -16 14 -40 61 -90 81 -84 87 -97 87
-174 0 -108 -45 -154 -143 -145 -77 7 -117 61 -117 160 l0 37 55 0 55 0 0 -45
c0 -47 20 -69 42 -47 23 23 -2 79 -71 154 -75 83 -89 120 -72 186 11 41 43 77
76 85 33 9 94 0 121 -18z m-3587 -6 c32 -30 41 -61 41 -138 0 -117 -31 -161
-115 -161 l-35 0 0 -106 0 -105 -52 3 -53 3 -3 263 -2 262 98 0 c86 0 101 -3
121 -21z m390 4 c38 -31 46 -176 12 -216 -8 -11 -7 -21 4 -45 12 -23 15 -57
13 -139 l-3 -108 -50 0 -50 0 -3 118 c-2 109 -4 117 -22 117 -19 0 -20 -7 -20
-121 l0 -120 -52 3 -53 3 -3 263 -2 262 104 0 c84 0 108 -3 125 -17z m261
-249 l0 -265 -47 3 -48 3 -3 263 -2 262 50 0 50 0 0 -266z m257 164 l21 -103
1 103 1 102 55 0 55 0 -2 -262 -3 -263 -50 0 -50 0 -12 50 c-6 28 -17 77 -25
110 l-13 60 -5 -110 -5 -110 -50 0 -50 0 -3 263 -2 262 58 0 58 0 21 -102z
m483 52 c0 -49 -1 -50 -30 -50 l-30 0 -2 -212 -3 -213 -50 0 -50 0 -3 213 -2
212 -30 0 c-29 0 -30 1 -30 50 l0 50 115 0 115 0 0 -50z m993 13 c3 -21 11
-92 18 -158 15 -141 22 -130 39 63 l12 132 49 0 c44 0 49 -2 49 -22 0 -39 -59
-488 -65 -498 -9 -15 -135 -13 -140 3 -5 12 -65 484 -65 506 0 7 19 11 49 11
48 0 48 0 54 -37z m507 -13 l0 -50 -55 0 -55 0 0 -50 0 -50 50 0 50 0 0 -49 0
-50 -47 -3 -48 -3 -3 -57 -3 -58 56 0 56 0 -3 -52 -3 -53 -105 0 -105 0 -3
263 -2 262 110 0 110 0 0 -50z m335 44 c28 -11 45 -60 45 -134 0 -58 -4 -74
-21 -91 -20 -20 -20 -21 -2 -34 16 -12 18 -29 18 -137 l0 -123 -50 0 -50 0 -5
115 c-4 98 -7 115 -22 118 -16 3 -18 -9 -20 -115 l-3 -118 -50 0 -50 0 -3 263
-2 262 99 0 c55 0 107 -3 116 -6z m765 -44 l0 -50 -55 0 -55 0 0 -50 0 -50 50
0 50 0 0 -49 0 -50 -47 -3 -48 -3 -3 -57 -3 -58 56 0 56 0 -3 -52 -3 -53 -105
0 -105 0 -3 263 -2 262 110 0 110 0 0 -50z"/>
<path d="M2273 2738 c-40 -17 -70 -34 -67 -39 6 -11 152 -79 168 -79 23 1 161
70 161 81 0 16 -130 69 -164 68 -14 0 -59 -14 -98 -31z"/>
<path d="M2070 2450 l0 -130 33 -14 c17 -7 63 -28 100 -46 38 -17 75 -29 83
-26 12 5 14 28 12 123 l-3 118 -100 52 c-55 28 -106 52 -112 52 -10 1 -13 -31
-13 -129z"/>
<path d="M2640 2569 c-8 -5 -54 -27 -102 -49 l-88 -39 0 -125 c0 -69 3 -127 8
-129 4 -3 55 18 115 46 l107 50 0 128 c0 133 -3 142 -40 118z"/>
<path d="M803 2398 c-29 -11 -53 -24 -53 -28 0 -4 27 -20 61 -35 l61 -27 64
27 c35 15 64 29 64 32 0 8 -110 53 -128 52 -9 0 -41 -10 -69 -21z"/>
<path d="M650 2186 l0 -94 65 -31 c104 -48 100 -50 100 54 l0 90 -75 37 c-41
20 -78 37 -82 37 -5 1 -8 -41 -8 -93z"/>
<path d="M1009 2242 l-74 -37 -3 -84 c-2 -46 1 -88 5 -92 4 -4 43 9 86 28 l77
36 0 88 c0 48 -4 90 -8 93 -4 3 -42 -12 -83 -32z"/>
<path d="M3773 2398 c-29 -11 -53 -24 -53 -28 0 -7 110 -60 125 -60 15 0 125
53 125 60 0 9 -111 50 -131 49 -8 0 -38 -10 -66 -21z"/>
<path d="M3620 2187 l0 -95 65 -31 c104 -48 100 -50 100 54 l0 90 -61 31
c-110 57 -104 60 -104 -49z"/>
<path d="M3980 2242 l-75 -37 0 -90 c0 -104 -4 -102 100 -54 l65 31 0 94 c0
52 -3 94 -7 94 -5 0 -42 -17 -83 -38z"/>
<path d="M360 1300 c0 -47 3 -60 15 -60 23 0 38 43 31 84 -5 27 -12 36 -26 36
-18 0 -20 -7 -20 -60z"/>
<path d="M740 1315 c0 -42 2 -46 23 -43 19 3 22 9 22 43 0 34 -3 40 -22 43
-21 3 -23 -1 -23 -43z"/>
<path d="M3590 1316 c0 -39 3 -46 20 -46 38 0 41 83 2 88 -20 3 -22 -1 -22
-42z"/>
<path d="M28 3863 c3 -18 7 -21 13 -11 12 18 11 25 -4 31 -10 4 -13 -2 -9 -20z"/>
</g>
</svg>
